<svg width="24" height="24" viewBox="0 0 24 24" fill="none" xmlns="http://www.w3.org/2000/svg">
<g id="icon/file-lock-one">
<g id="Vector">
<path fill-rule="evenodd" clip-rule="evenodd" d="M5 1C3.89543 1 3 1.89543 3 3V21C3 22.1046 3.89544 23 5 23H11C11.5523 23 12 22.5523 12 22C12 21.4477 11.5523 21 11 21H5V3H14V7C14 7.55228 14.4477 8 15 8H19V11.5C19 12.0523 19.4477 12.5 20 12.5C20.5523 12.5 21 12.0523 21 11.5V7C21 6.74138 20.9018 6.5057 20.7407 6.32817L16.2433 1.33104C16.0537 1.12032 15.7835 1 15.5 1H5ZM16 4.0504V6H17.7546L16 4.0504Z" fill="#01B399"/>
<path fill-rule="evenodd" clip-rule="evenodd" d="M14 16C13.4477 16 13 16.4477 13 17V21C13 21.5523 13.4477 22 14 22H21C21.5523 22 22 21.5523 22 21V17C22 16.4477 21.5523 16 21 16H20V15.5C20 14.1193 18.8807 13 17.5 13C16.1193 13 15 14.1193 15 15.5V16H14ZM18 15.5V16H17V15.5C17 15.2238 17.2238 15 17.5 15C17.7762 15 18 15.2238 18 15.5ZM20 18H15V20H20V18Z" fill="#01B399"/>
</g>
</g>
</svg>
